<svg width="20" height="20" viewBox="0 0 24 24" fill="none" xmlns="http://www.w3.org/2000/svg">
  <path d="M12 4.5a7.5 7.5 0 0 0-6.57 11.11L4.5 20l4.57-.9A7.5 7.5 0 1 0 12 4.5Z" stroke="#059669" stroke-width="1.8" stroke-linejoin="round"/>
  <path d="M9 9.5c.3-.7.9-.7 1.1-.7.2 0 .4 0 .5.4l.6 1.4c.1.2.1.4 0 .6-.2.2-.4.4-.5.6-.1.1-.2.3 0 .5.2.4.8 1.2 1.9 1.7.9.5 1.3.4 1.6.3.2-.1.7-.8.9-1 .1-.2.3-.2.5-.1l1.3.6c.2.1.4.2.4.4 0 .3-.1 1.3-.9 1.9-.8.6-1.8.8-2.9.5-1-.3-2-.8-2.8-1.6-.8-.8-1.4-1.8-1.7-2.8-.3-1.1-.1-2.1.5-2.9Z" fill="#059669"/>
</svg>
