<svg xmlns="http://www.w3.org/2000/svg" viewBox="0 0 200 200" fill="none">
  <defs>
    <linearGradient id="g" x1="0" y1="0" x2="1" y2="1">
      <stop offset="0%" stop-color="#c87bff" />
      <stop offset="100%" stop-color="#7a5cff" />
    </linearGradient>
  </defs>
  <rect width="200" height="200" rx="44" fill="url(#g)" />
  <path d="M 50 154 L 50 142 L 70 142 Q 56 132 50 116 Q 42 96 52 78 Q 64 56 100 56 Q 136 56 148 78 Q 158 96 150 116 Q 144 132 130 142 L 150 142 L 150 154 Z M 100 76 Q 78 76 72 92 Q 68 104 76 120 Q 84 132 100 132 Q 116 132 124 120 Q 132 104 128 92 Q 122 76 100 76 Z" fill="#0a0a0c" fill-rule="evenodd" />
  <path d="M 100 86 L 84 130 L 92 130 L 96 120 L 104 120 L 108 130 L 116 130 Z M 98 112 L 100 104 L 102 112 Z" fill="#0a0a0c" />
</svg>
