<svg width="360" height="360" viewBox="0 0 192 192" xmlns="http://www.w3.org/2000/svg">
  <defs>
    <linearGradient id="strap" x1="0" y1="0" x2="1" y2="1">
      <stop offset="0" stop-color="#2b313d"/>
      <stop offset="0.55" stop-color="#141a24"/>
      <stop offset="1" stop-color="#0b0f17"/>
    </linearGradient>
    <radialGradient id="bezel" cx="40%" cy="35%" r="70%">
      <stop offset="0" stop-color="#3c404a"/>
      <stop offset="0.6" stop-color="#171c26"/>
      <stop offset="1" stop-color="#090c12"/>
    </radialGradient>
    <mask id="screen-cutout">
      <rect width="192" height="192" fill="white"/>
      <circle cx="96" cy="96" r="38" fill="black"/>
    </mask>
    <filter id="softShadow" x="-20%" y="-20%" width="140%" height="140%">
      <feDropShadow dx="0" dy="6" stdDeviation="6" flood-color="#03060f" flood-opacity="0.4"/>
    </filter>
  </defs>

  <path
    d="M133.26 62.86c3.5 3.92 13.15 16.27 13.15 33.14 0 19.61-11.51 32.3-14.2 35.08a55.53 55.53 0 0 0-8.46 16.72c-2.13 7-1.61 10.73-4.63 14.8-3.74 5.05-10 6.75-14.8 7.4H87.67c-4.89-.67-11.1-2.41-14.8-7.4-3-4-2.48-7.74-4.62-14.8a56 56 0 0 0-8.31-16.57c-2.5-2.58-14.35-15.33-14.35-35.23a51.44 51.44 0 0 1 12.53-33.27A50.2 50.2 0 0 0 68.25 44.2c1.9-6.62 1.41-10.58 4.62-14.8 3.79-5 10-6.72 14.8-7.4h16.65c4.84.68 11 2.43 14.8 7.4 3.18 4.17 2.76 8.09 4.63 14.8a54.55 54.55 0 0 0 9.51 18.66Z"
    fill="url(#strap)"
    stroke="#0c1018"
    stroke-width="3"
    mask="url(#screen-cutout)"
    filter="url(#softShadow)"
  />

  <circle cx="96" cy="96" r="52" fill="url(#bezel)" stroke="#0b0f16" stroke-width="3" />
  <circle cx="96" cy="96" r="44" fill="none" stroke="rgba(255,255,255,0.18)" stroke-width="2"/>
  <circle cx="96" cy="96" r="38" fill="none" stroke="#0b0f16" stroke-width="2"/>

  <path
    d="M62 52c10-9 22-14 34-14 12 0 24 4 34 12"
    fill="none"
    stroke="rgba(255,255,255,0.08)"
    stroke-width="4"
    stroke-linecap="round"
  />

  <rect x="172" y="78" width="10" height="36" rx="5" fill="#222633" stroke="#0c1018" stroke-width="1"/>
  <rect x="170" y="64" width="6" height="10" rx="3" fill="#1a1f2a"/>
  <rect x="170" y="118" width="6" height="10" rx="3" fill="#1a1f2a"/>
</svg>
